# Blender v2.78 (sub 0) OBJ File: 'circuito 1.blend'
# www.blender.org
mtllib circuito2.mtl
o Plane.005
v -8.674934 0.000222 7.566921
v -4.756194 0.000222 11.943995
v -6.390503 0.000222 5.031502
v -4.111659 0.000222 8.420269
vn 0.0000 1.0000 0.0000
usemtl None
s off
f 1//1 2//1 4//1 3//1
o Plane.002_Plane.004
v -4.752007 0.000222 11.938286
v -0.979349 0.000222 11.393728
v -4.121903 0.000222 8.423591
v -2.395377 0.000222 8.630234
vn 0.0000 1.0000 0.0000
usemtl None
s off
f 5//2 6//2 8//2 7//2
o Plane.001_Plane.003
v -2.398918 -0.000003 8.634111
v -1.010417 -0.000003 11.400562
v -1.106746 -0.000003 6.592695
v 0.855217 -0.000003 7.908997
vn 0.0000 1.0000 0.0000
usemtl None
s off
f 9//3 10//3 12//3 11//3
o Plane
v -1.125665 -0.000003 6.586140
v 0.874335 -0.000003 7.932883
v -0.998527 -0.000003 -1.078742
v 0.820877 -0.000003 -0.507989
vn 0.0000 1.0000 0.0000
usemtl None
s off
f 13//4 14//4 16//4 15//4
o Plane.003_Plane.018
v -0.999053 -0.000003 -1.066737
v 0.827304 -0.000003 -0.513059
v 0.162261 -0.000003 -3.061586
v 1.449795 -0.000003 -1.861735
vn 0.0000 1.0000 0.0000
usemtl None
s off
f 17//5 18//5 20//5 19//5
o Plane.004_Plane.019
v 0.159197 0.000006 -3.041122
v 1.453519 0.000006 -1.861134
v 1.960516 0.000006 -4.171020
v 2.305357 0.000006 -2.503264
vn 0.0000 1.0000 0.0000
usemtl None
s off
f 21//6 22//6 24//6 23//6
o Plane.007_Plane.020
v 2.304446 0.000006 -2.493692
v 3.900587 0.000006 -3.529927
v 1.969057 0.000006 -4.169690
v 2.937420 0.000006 -4.953090
vn 0.0000 1.0000 0.0000
usemtl None
s off
f 25//7 26//7 28//7 27//7
o Plane.016_Plane.021
v 2.929969 0.000095 -4.951387
v 3.903250 0.000095 -3.525282
v 3.572642 0.000095 -6.678790
v 5.572642 0.000095 -5.944584
vn 0.0000 1.0000 0.0000
usemtl None
s off
f 29//8 30//8 32//8 31//8
o Plane.017_Plane.022
v 3.584533 0.000095 -6.665257
v 5.569415 0.000095 -5.944081
v 3.546703 0.000095 -8.205159
v 5.574215 0.000095 -8.901935
vn 0.0000 1.0000 0.0000
usemtl None
s off
f 33//9 34//9 36//9 35//9
o Plane.018_Plane.023
v 2.583884 0.000095 -9.428023
v 3.548488 0.000095 -8.210646
v 4.091243 0.000095 -10.599754
v 5.563078 0.000095 -8.885463
vn 0.0000 1.0000 0.0000
usemtl None
s off
f 37//10 38//10 40//10 39//10
o Plane.019_Plane.024
v 1.405331 0.000095 -9.724191
v 2.581931 0.000095 -9.434404
v 2.016633 0.000095 -11.493433
v 4.093767 0.000095 -10.578727
vn 0.0000 1.0000 -0.0000
usemtl None
s off
f 41//11 42//11 44//11 43//11
o Plane.020_Plane.025
v -0.598989 0.000095 -9.566716
v 1.418207 0.000095 -9.721185
v -0.598989 0.000095 -11.291128
v 2.013294 0.000095 -11.488211
vn 0.0000 1.0000 0.0000
usemtl None
s off
f 45//12 46//12 48//12 47//12
o Plane.021_Plane.026
v -3.096198 0.000095 -9.054250
v -0.582607 0.000095 -9.569785
v -3.674841 0.000095 -10.481741
v -0.595870 0.000095 -11.275278
vn 0.0000 1.0000 0.0000
usemtl None
s off
f 49//13 50//13 52//13 51//13
o Plane.022_Plane.027
v -5.065347 0.000095 -7.516073
v -3.063614 0.000095 -9.060997
v -6.777917 0.000095 -8.442575
v -3.673930 0.000095 -10.465608
vn 0.0000 1.0000 0.0000
usemtl None
s off
f 53//14 54//14 56//14 55//14
o Plane.023_Plane.028
v -8.672206 0.000095 -5.547833
v -6.370667 0.000095 -5.257396
v -6.780486 0.000095 -8.439027
v -5.068165 0.000095 -7.526904
vn 0.0000 1.0000 -0.0000
usemtl None
s off
f 57//15 58//15 60//15 59//15
o Plane.026_Plane.039
v -8.665699 0.000034 7.597367
v -6.369207 0.000034 5.067703
v -8.675766 0.000034 -5.594528
v -6.374867 0.000034 -5.311229
vn 0.0000 1.0000 -0.0000
usemtl None
s off
f 61//16 62//16 64//16 63//16
